<?xml version="1.0" encoding="utf-8"?>
<!-- Generator: Adobe Illustrator 23.1.0, SVG Export Plug-In . SVG Version: 6.00 Build 0)  -->
<svg version="1.1" id="Layer_1" xmlns="http://www.w3.org/2000/svg" xmlns:xlink="http://www.w3.org/1999/xlink" x="0px" y="0px"
	 viewBox="0 0 256 256" style="enable-background:new 0 0 256 256;" xml:space="preserve">
<style type="text/css">
	.st0{display:none;fill:#FFFFFF;}
	.st1{fill:#2C5871;}
	.st2{fill:#0F303F;}
	.st3{fill:#03AAB6;}
	.st4{fill:#4BCDD6;}
	.st5{fill:#EAEAEA;}
	.st6{fill:#FFFFFF;}
	.st7{fill:#FDC63A;}
	.st8{fill:#FDA014;}
	.st9{fill:#E5E5E5;}
</style>
<rect class="st0" width="256" height="256"/>
<g id="_x32_56_X_256">
	<g>
		<path class="st1" d="M62.9,172.7c-29.5-52-24.7-101.6-24.7-101.6s24.8-6.8,49.2-19C108.9,41.2,128,21.4,128,21.4V2.7
			c0,0-22.4,23.3-47.7,36C51.8,53.1,22.6,61.1,22.6,61.1s-5.6,58.4,29,119.5c33.2,58.6,76.4,72.8,76.4,72.8v-18.7
			C128,234.6,91.2,222.6,62.9,172.7z"/>
		<path class="st2" d="M233.4,61.1c0,0-29.2-8-57.8-22.4C150.4,26,128,2.7,128,2.7v18.7c0,0,19.1,19.8,40.5,30.6
			c24.3,12.3,49.2,19,49.2,19s4.8,49.7-24.7,101.6c-28.3,49.9-65.1,61.9-65.1,61.9v18.7c0,0,43.2-14.1,76.5-72.8
			C239.1,119.4,233.4,61.1,233.4,61.1z"/>
		<path class="st3" d="M193,172.7c29.5-52,24.7-101.6,24.7-101.6s-24.9-6.8-49.2-19C147.1,41.2,128,21.4,128,21.4v213.2
			C128,234.6,164.8,222.6,193,172.7z"/>
		<path class="st4" d="M87.5,52c-24.3,12.3-49.2,19-49.2,19s-4.8,49.7,24.7,101.6c28.3,49.9,65,61.9,65,61.9V21.4
			C128,21.4,108.9,41.2,87.5,52z"/>
	</g>
	<g>
		<path class="st5" d="M130.7,94.2c6.3,0,11.4,5.1,11.4,11.5v19.2h9.6v-19.2c0-11.6-9.5-21.1-21.1-21.1H128v9.6H130.7z"/>
		<path class="st6" d="M113.8,105.7c0-6.3,5.1-11.5,11.4-11.5h2.7v-9.6h-2.7c-11.6,0-21.1,9.5-21.1,21.1v19.2h9.6V105.7z"/>
		<polygon class="st2" points="159.4,124.9 151.8,124.9 142.2,124.9 128,124.9 128,171.4 159.4,171.4 		"/>
		<polygon class="st1" points="113.8,124.9 104.2,124.9 96.6,124.9 96.6,171.4 128,171.4 128,124.9 		"/>
		<rect x="104.5" y="135.7" class="st7" width="10.2" height="23.7"/>
		<g>
			<path class="st1" d="M111.6,140.2c0,0.5-0.1,0.9-0.2,1.2c-0.1,0.3-0.2,0.6-0.4,0.9c-0.2,0.2-0.4,0.4-0.6,0.5
				c-0.2,0.1-0.5,0.2-0.8,0.2c-0.3,0-0.5-0.1-0.8-0.2c-0.2-0.1-0.5-0.3-0.6-0.5c-0.2-0.2-0.3-0.5-0.4-0.9c-0.1-0.3-0.1-0.7-0.1-1.2
				c0-0.5,0-0.9,0.1-1.2c0.1-0.3,0.2-0.6,0.4-0.9c0.2-0.2,0.4-0.4,0.6-0.5c0.2-0.1,0.5-0.2,0.8-0.2c0.3,0,0.5,0.1,0.8,0.2
				c0.2,0.1,0.5,0.3,0.6,0.5c0.2,0.2,0.3,0.5,0.4,0.9C111.6,139.3,111.6,139.7,111.6,140.2z M110.5,140.2c0-0.4,0-0.7-0.1-0.9
				c0-0.2-0.1-0.4-0.2-0.6c-0.1-0.1-0.2-0.2-0.3-0.3c-0.1-0.1-0.2-0.1-0.3-0.1c-0.1,0-0.2,0-0.3,0.1c-0.1,0-0.2,0.1-0.3,0.3
				c-0.1,0.1-0.1,0.3-0.2,0.6c0,0.2-0.1,0.5-0.1,0.9c0,0.4,0,0.7,0.1,0.9c0,0.2,0.1,0.4,0.2,0.6c0.1,0.1,0.2,0.2,0.3,0.3
				c0.1,0.1,0.2,0.1,0.3,0.1c0.1,0,0.2,0,0.3-0.1c0.1,0,0.2-0.1,0.3-0.3c0.1-0.1,0.1-0.3,0.2-0.6
				C110.4,140.8,110.5,140.5,110.5,140.2z"/>
			<path class="st1" d="M108.4,149.4h1v-2.7c0-0.1,0-0.3,0-0.4l-0.6,0.5c0,0-0.1,0.1-0.1,0.1c0,0-0.1,0-0.1,0c-0.1,0-0.1,0-0.2,0
				c-0.1,0-0.1-0.1-0.1-0.1l-0.4-0.5l1.7-1.4h0.9v4.5h0.9v0.8h-3.1V149.4z"/>
			<path class="st1" d="M109.7,152.1c0.3,0,0.5,0,0.7,0.1c0.2,0.1,0.4,0.2,0.5,0.3c0.1,0.1,0.3,0.3,0.3,0.5c0.1,0.2,0.1,0.4,0.1,0.6
				c0,0.2,0,0.4-0.1,0.5c-0.1,0.2-0.1,0.3-0.2,0.5c-0.1,0.2-0.2,0.3-0.3,0.4c-0.1,0.1-0.3,0.3-0.4,0.4l-1,1.1c0.1,0,0.3-0.1,0.4-0.1
				c0.1,0,0.3,0,0.4,0h1c0.1,0,0.2,0,0.3,0.1c0.1,0.1,0.1,0.2,0.1,0.3v0.7h-3.8v-0.4c0-0.1,0-0.1,0-0.2c0-0.1,0.1-0.2,0.2-0.2
				l1.5-1.6c0.1-0.1,0.2-0.3,0.3-0.4c0.1-0.1,0.2-0.2,0.2-0.4c0.1-0.1,0.1-0.2,0.1-0.3c0-0.1,0-0.2,0-0.4c0-0.2-0.1-0.4-0.2-0.5
				c-0.1-0.1-0.3-0.2-0.5-0.2c-0.1,0-0.2,0-0.2,0c-0.1,0-0.1,0.1-0.2,0.1c-0.1,0-0.1,0.1-0.1,0.1c0,0.1-0.1,0.1-0.1,0.2
				c0,0.1-0.1,0.2-0.2,0.2c-0.1,0-0.1,0.1-0.2,0.1c0,0-0.1,0-0.1,0c0,0-0.1,0-0.1,0l-0.6-0.1c0-0.3,0.1-0.5,0.2-0.7
				c0.1-0.2,0.3-0.4,0.4-0.5c0.2-0.1,0.4-0.2,0.6-0.3C109.3,152.2,109.5,152.1,109.7,152.1z"/>
		</g>
		<rect x="116.8" y="135.7" class="st7" width="10.2" height="23.7"/>
		<g>
			<path class="st1" d="M123.9,140.2c0,0.5-0.1,0.9-0.2,1.2c-0.1,0.3-0.2,0.6-0.4,0.9c-0.2,0.2-0.4,0.4-0.6,0.5
				c-0.2,0.1-0.5,0.2-0.8,0.2c-0.3,0-0.5-0.1-0.8-0.2c-0.2-0.1-0.5-0.3-0.6-0.5c-0.2-0.2-0.3-0.5-0.4-0.9c-0.1-0.3-0.2-0.7-0.2-1.2
				c0-0.5,0-0.9,0.2-1.2c0.1-0.3,0.2-0.6,0.4-0.9c0.2-0.2,0.4-0.4,0.6-0.5c0.2-0.1,0.5-0.2,0.8-0.2c0.3,0,0.5,0.1,0.8,0.2
				c0.2,0.1,0.5,0.3,0.6,0.5c0.2,0.2,0.3,0.5,0.4,0.9C123.8,139.3,123.9,139.7,123.9,140.2z M122.7,140.2c0-0.4,0-0.7-0.1-0.9
				c0-0.2-0.1-0.4-0.2-0.6c-0.1-0.1-0.2-0.2-0.3-0.3c-0.1-0.1-0.2-0.1-0.3-0.1c-0.1,0-0.2,0-0.3,0.1c-0.1,0-0.2,0.1-0.3,0.3
				c-0.1,0.1-0.1,0.3-0.2,0.6c0,0.2-0.1,0.5-0.1,0.9c0,0.4,0,0.7,0.1,0.9c0,0.2,0.1,0.4,0.2,0.6c0.1,0.1,0.2,0.2,0.3,0.3
				c0.1,0.1,0.2,0.1,0.3,0.1c0.1,0,0.2,0,0.3-0.1c0.1,0,0.2-0.1,0.3-0.3c0.1-0.1,0.1-0.3,0.2-0.6
				C122.7,140.8,122.7,140.5,122.7,140.2z"/>
			<path class="st1" d="M120.7,149.4h1v-2.7c0-0.1,0-0.3,0-0.4l-0.6,0.5c0,0-0.1,0.1-0.1,0.1c0,0-0.1,0-0.1,0c-0.1,0-0.1,0-0.2,0
				c-0.1,0-0.1-0.1-0.1-0.1l-0.4-0.5l1.7-1.4h0.9v4.5h0.9v0.8h-3V149.4z"/>
			<path class="st1" d="M122,152.1c0.3,0,0.5,0,0.7,0.1c0.2,0.1,0.4,0.2,0.5,0.3c0.1,0.1,0.3,0.3,0.3,0.5c0.1,0.2,0.1,0.4,0.1,0.6
				c0,0.2,0,0.4-0.1,0.5c-0.1,0.2-0.1,0.3-0.2,0.5c-0.1,0.2-0.2,0.3-0.3,0.4c-0.1,0.1-0.3,0.3-0.4,0.4l-1,1.1c0.1,0,0.3-0.1,0.4-0.1
				c0.1,0,0.3,0,0.4,0h1c0.1,0,0.2,0,0.3,0.1c0.1,0.1,0.1,0.2,0.1,0.3v0.7H120v-0.4c0-0.1,0-0.1,0-0.2c0-0.1,0.1-0.2,0.2-0.2
				l1.5-1.6c0.1-0.1,0.2-0.3,0.3-0.4c0.1-0.1,0.2-0.2,0.2-0.4c0.1-0.1,0.1-0.2,0.1-0.3c0-0.1,0-0.2,0-0.4c0-0.2-0.1-0.4-0.2-0.5
				c-0.1-0.1-0.3-0.2-0.5-0.2c-0.1,0-0.2,0-0.2,0c-0.1,0-0.1,0.1-0.2,0.1c-0.1,0-0.1,0.1-0.1,0.1c0,0.1-0.1,0.1-0.1,0.2
				c0,0.1-0.1,0.2-0.1,0.2c-0.1,0-0.1,0.1-0.2,0.1c0,0-0.1,0-0.1,0c0,0-0.1,0-0.1,0l-0.6-0.1c0-0.3,0.1-0.5,0.2-0.7
				c0.1-0.2,0.2-0.4,0.4-0.5c0.2-0.1,0.4-0.2,0.6-0.3C121.5,152.2,121.7,152.1,122,152.1z"/>
		</g>
		<rect x="129" y="135.7" class="st8" width="10.2" height="23.7"/>
		<g>
			<path class="st1" d="M136.1,140.2c0,0.5-0.1,0.9-0.2,1.2c-0.1,0.3-0.2,0.6-0.4,0.9c-0.2,0.2-0.4,0.4-0.6,0.5
				c-0.2,0.1-0.5,0.2-0.8,0.2c-0.3,0-0.5-0.1-0.8-0.2c-0.2-0.1-0.5-0.3-0.6-0.5c-0.2-0.2-0.3-0.5-0.4-0.9c-0.1-0.3-0.1-0.7-0.1-1.2
				c0-0.5,0-0.9,0.1-1.2c0.1-0.3,0.2-0.6,0.4-0.9c0.2-0.2,0.4-0.4,0.6-0.5c0.2-0.1,0.5-0.2,0.8-0.2c0.3,0,0.5,0.1,0.8,0.2
				c0.2,0.1,0.5,0.3,0.6,0.5c0.2,0.2,0.3,0.5,0.4,0.9C136.1,139.3,136.1,139.7,136.1,140.2z M134.9,140.2c0-0.4,0-0.7-0.1-0.9
				c0-0.2-0.1-0.4-0.2-0.6c-0.1-0.1-0.2-0.2-0.3-0.3c-0.1-0.1-0.2-0.1-0.3-0.1s-0.2,0-0.3,0.1c-0.1,0-0.2,0.1-0.3,0.3
				c-0.1,0.1-0.1,0.3-0.2,0.6c0,0.2-0.1,0.5-0.1,0.9c0,0.4,0,0.7,0.1,0.9c0,0.2,0.1,0.4,0.2,0.6c0.1,0.1,0.2,0.2,0.3,0.3
				c0.1,0.1,0.2,0.1,0.3,0.1s0.2,0,0.3-0.1c0.1,0,0.2-0.1,0.3-0.3c0.1-0.1,0.1-0.3,0.2-0.6C134.9,140.8,134.9,140.5,134.9,140.2z"/>
			<path class="st1" d="M132.9,149.4h1v-2.7c0-0.1,0-0.3,0-0.4l-0.6,0.5c0,0-0.1,0.1-0.1,0.1c0,0-0.1,0-0.1,0c-0.1,0-0.1,0-0.2,0
				c0,0-0.1-0.1-0.1-0.1l-0.4-0.5l1.7-1.4h0.9v4.5h0.9v0.8h-3.1V149.4z"/>
			<path class="st1" d="M134.2,152.1c0.3,0,0.5,0,0.7,0.1c0.2,0.1,0.4,0.2,0.5,0.3c0.1,0.1,0.3,0.3,0.3,0.5c0.1,0.2,0.1,0.4,0.1,0.6
				c0,0.2,0,0.4-0.1,0.5c-0.1,0.2-0.1,0.3-0.2,0.5c-0.1,0.2-0.2,0.3-0.3,0.4c-0.1,0.1-0.3,0.3-0.4,0.4l-1,1.1c0.1,0,0.3-0.1,0.4-0.1
				c0.1,0,0.3,0,0.4,0h1c0.1,0,0.2,0,0.3,0.1c0.1,0.1,0.1,0.2,0.1,0.3v0.7h-3.8v-0.4c0-0.1,0-0.1,0-0.2c0-0.1,0.1-0.2,0.2-0.2
				l1.5-1.6c0.1-0.1,0.2-0.3,0.3-0.4c0.1-0.1,0.2-0.2,0.2-0.4c0.1-0.1,0.1-0.2,0.1-0.3c0-0.1,0-0.2,0-0.4c0-0.2-0.1-0.4-0.2-0.5
				c-0.1-0.1-0.3-0.2-0.5-0.2c-0.1,0-0.2,0-0.2,0c-0.1,0-0.1,0.1-0.2,0.1c-0.1,0-0.1,0.1-0.1,0.1c0,0.1-0.1,0.1-0.1,0.2
				c0,0.1-0.1,0.2-0.1,0.2c-0.1,0-0.1,0.1-0.2,0.1c0,0,0,0-0.1,0c0,0-0.1,0-0.1,0l-0.6-0.1c0-0.3,0.1-0.5,0.2-0.7
				c0.1-0.2,0.3-0.4,0.4-0.5c0.2-0.1,0.4-0.2,0.6-0.3C133.7,152.2,134,152.1,134.2,152.1z"/>
		</g>
		<rect x="141.2" y="135.7" class="st8" width="10.2" height="23.7"/>
		<g>
			<path class="st1" d="M148.3,140.2c0,0.5,0,0.9-0.2,1.2c-0.1,0.3-0.2,0.6-0.4,0.9c-0.2,0.2-0.4,0.4-0.6,0.5
				c-0.2,0.1-0.5,0.2-0.8,0.2c-0.3,0-0.5-0.1-0.8-0.2c-0.2-0.1-0.5-0.3-0.6-0.5c-0.2-0.2-0.3-0.5-0.4-0.9c-0.1-0.3-0.2-0.7-0.2-1.2
				c0-0.5,0.1-0.9,0.2-1.2c0.1-0.3,0.2-0.6,0.4-0.9c0.2-0.2,0.4-0.4,0.6-0.5c0.2-0.1,0.5-0.2,0.8-0.2c0.3,0,0.5,0.1,0.8,0.2
				c0.2,0.1,0.5,0.3,0.6,0.5c0.2,0.2,0.3,0.5,0.4,0.9C148.3,139.3,148.3,139.7,148.3,140.2z M147.2,140.2c0-0.4,0-0.7-0.1-0.9
				c0-0.2-0.1-0.4-0.2-0.6c-0.1-0.1-0.2-0.2-0.3-0.3c-0.1-0.1-0.2-0.1-0.3-0.1c-0.1,0-0.2,0-0.3,0.1c-0.1,0-0.2,0.1-0.3,0.3
				c-0.1,0.1-0.1,0.3-0.2,0.6c0,0.2-0.1,0.5-0.1,0.9c0,0.4,0,0.7,0.1,0.9c0,0.2,0.1,0.4,0.2,0.6c0.1,0.1,0.2,0.2,0.3,0.3
				c0.1,0.1,0.2,0.1,0.3,0.1c0.1,0,0.2,0,0.3-0.1c0.1,0,0.2-0.1,0.3-0.3c0.1-0.1,0.1-0.3,0.2-0.6
				C147.1,140.8,147.2,140.5,147.2,140.2z"/>
			<path class="st1" d="M145.1,149.4h1v-2.7c0-0.1,0-0.3,0-0.4l-0.6,0.5c0,0-0.1,0.1-0.1,0.1c0,0-0.1,0-0.1,0c-0.1,0-0.1,0-0.2,0
				c-0.1,0-0.1-0.1-0.1-0.1l-0.4-0.5l1.7-1.4h0.9v4.5h0.9v0.8h-3.1V149.4z"/>
			<path class="st1" d="M146.4,152.1c0.3,0,0.5,0,0.7,0.1c0.2,0.1,0.4,0.2,0.5,0.3c0.1,0.1,0.3,0.3,0.3,0.5c0.1,0.2,0.1,0.4,0.1,0.6
				c0,0.2,0,0.4-0.1,0.5c-0.1,0.2-0.1,0.3-0.2,0.5c-0.1,0.2-0.2,0.3-0.3,0.4c-0.1,0.1-0.3,0.3-0.4,0.4l-1,1.1c0.1,0,0.3-0.1,0.4-0.1
				c0.1,0,0.3,0,0.4,0h1c0.1,0,0.2,0,0.3,0.1c0.1,0.1,0.1,0.2,0.1,0.3v0.7h-3.8v-0.4c0-0.1,0-0.1,0-0.2c0-0.1,0.1-0.2,0.2-0.2
				l1.5-1.6c0.1-0.1,0.2-0.3,0.3-0.4c0.1-0.1,0.2-0.2,0.2-0.4c0.1-0.1,0.1-0.2,0.1-0.3c0-0.1,0-0.2,0-0.4c0-0.2,0-0.4-0.2-0.5
				c-0.1-0.1-0.3-0.2-0.5-0.2c-0.1,0-0.2,0-0.2,0c-0.1,0-0.1,0.1-0.2,0.1c-0.1,0-0.1,0.1-0.1,0.1c0,0.1-0.1,0.1-0.1,0.2
				c0,0.1-0.1,0.2-0.1,0.2c-0.1,0-0.1,0.1-0.2,0.1c0,0,0,0-0.1,0c0,0-0.1,0-0.1,0l-0.6-0.1c0-0.3,0.1-0.5,0.2-0.7
				c0.1-0.2,0.2-0.4,0.4-0.5c0.2-0.1,0.4-0.2,0.6-0.3C146,152.2,146.2,152.1,146.4,152.1z"/>
		</g>
		<rect x="104.2" y="120.9" class="st9" width="9.6" height="4"/>
	</g>
</g>
</svg>
